<?xml version="1.0"?>
<svg width="99.99999999999999" height="99.99999999999999" xmlns="http://www.w3.org/2000/svg" xmlns:svg="http://www.w3.org/2000/svg" version="1.1" xml:space="preserve">
 <style type="text/css">.st0{fill:#4B4B4B;}</style>
 <g class="layer">
  <title>Layer 1</title>
  <g id="svg_1">
   <path class="st0" d="m85.686511,31.277293c-0.720569,-0.957252 -1.447774,-1.672877 -2.152759,-2.204581l0,-5.496023l1.966522,-0.076222l3.817938,-0.151519l0,-3.820677l0,-4.666528l0,-3.97451l-3.97455,0l-18.111908,0l-3.97455,0l0,3.97451l0,4.894269l0,3.97451l3.97455,0l2.463514,0c0.066039,1.534319 0.019287,3.504833 -0.362291,5.611128c-2.187785,12.069804 -17.009606,28.630083 -34.77851,33.093712c-3.50348,0.879641 -7.07053,1.32602 -10.602555,1.32602c-2.511347,0 -4.186709,-0.237924 -4.58526,-0.301494c-0.509645,-0.117728 -1.03117,-0.177286 -1.553776,-0.177286c-2.779207,0 -5.268335,1.657447 -6.341011,4.224316c-1.269252,3.045494 0.024688,6.120922 0.719335,7.773123c0.665022,1.613319 5.569832,11.794077 24.05298,13.805942c2.424631,0.263846 4.837382,0.397158 7.174064,0.397158c22.564934,0 38.967688,-11.997284 45.000722,-32.915037c3.332827,-11.556152 0.61071,-20.846776 -2.732455,-25.290809zm-1.086718,24.189753c-5.753601,19.948774 -21.393045,30.041583 -41.181395,30.041583c-2.200746,0 -4.450712,-0.124208 -6.744654,-0.373859c-17.413248,-1.895526 -20.818441,-11.395684 -20.818441,-11.395684c-0.754206,-1.793228 -1.272955,-3.362572 -0.715323,-4.700319c0.459344,-1.099667 1.527854,-1.781501 2.67305,-1.781501c0.248419,0 0.499307,0.032248 0.749115,0.098287c0,0 2.040276,0.38034 5.389921,0.38034c2.9872,0 7.017452,-0.302729 11.570464,-1.446371c18.200937,-4.572099 35.114724,-21.862198 37.721735,-36.238727c1.016975,-5.608505 0,-10.294628 0,-10.294628l-6.012358,0l0,-4.894269l18.111753,0l0,4.666528l-5.784615,0.227741l0,11.863973c3.361217,0 8.986751,10.165328 5.040746,23.846908z" fill="rgb(0, 0, 0)" id="svg_2"/>
   <path class="st0" d="m77.64298,39.799369c-0.360902,-0.059558 -0.702517,0.183767 -0.762076,0.544819c-2.181304,13.056681 -9.333304,21.935952 -17.768904,27.657093c-8.432977,5.715895 -18.162363,8.228451 -25.316985,8.441842c-0.365994,0.011726 -0.653296,0.317078 -0.642958,0.681988c0.011572,0.36599 0.316927,0.653289 0.681687,0.642951c7.418625,-0.227741 17.33934,-2.79322 26.020891,-8.669583c8.67615,-5.871271 16.097399,-15.097091 18.333016,-28.537043c0.059559,-0.360898 -0.183614,-0.70251 -0.54467,-0.762068z" fill="rgb(0, 0, 0)" id="svg_3"/>
  </g>
 </g>
</svg>